<mxfile host="app.diagrams.net" agent="Mozilla/5.0 (Windows NT 10.0; Win64; x64) AppleWebKit/537.36 (KHTML, like Gecko) Chrome/131.0.0.0 Safari/537.36" version="26.0.3">
  <diagram name="Page-1" id="fYaO_7uf7pz5zZ4xXS6A">
    <mxGraphModel dx="1434" dy="772" grid="1" gridSize="10" guides="1" tooltips="1" connect="1" arrows="1" fold="1" page="1" pageScale="1" pageWidth="827" pageHeight="1169" math="0" shadow="0">
      <root>
        <mxCell id="0" />
        <mxCell id="1" parent="0" />
        <mxCell id="9VrtbJm_BeBLOcRpWGuh-8" style="edgeStyle=orthogonalEdgeStyle;rounded=1;orthogonalLoop=1;jettySize=auto;html=1;entryX=1;entryY=0.5;entryDx=0;entryDy=0;curved=0;strokeWidth=2;strokeColor=light-dark(#99FF99,#EDEDED);" parent="1" target="9VrtbJm_BeBLOcRpWGuh-2" edge="1">
          <mxGeometry relative="1" as="geometry">
            <mxPoint x="200" y="70" as="sourcePoint" />
            <Array as="points">
              <mxPoint x="200" y="200" />
            </Array>
          </mxGeometry>
        </mxCell>
        <mxCell id="9VrtbJm_BeBLOcRpWGuh-26" style="edgeStyle=orthogonalEdgeStyle;rounded=1;orthogonalLoop=1;jettySize=auto;html=1;exitX=0.238;exitY=0.988;exitDx=0;exitDy=0;entryX=0.5;entryY=0;entryDx=0;entryDy=0;strokeColor=light-dark(#99FF99,#EDEDED);curved=0;strokeWidth=2;exitPerimeter=0;" parent="1" source="9VrtbJm_BeBLOcRpWGuh-1" target="9VrtbJm_BeBLOcRpWGuh-19" edge="1">
          <mxGeometry relative="1" as="geometry" />
        </mxCell>
        <mxCell id="9VrtbJm_BeBLOcRpWGuh-28" value="&lt;span style=&quot;font-size: 13px;&quot;&gt;Visiteur&lt;/span&gt;" style="edgeLabel;html=1;align=center;verticalAlign=middle;resizable=0;points=[];" parent="9VrtbJm_BeBLOcRpWGuh-26" vertex="1" connectable="0">
          <mxGeometry x="-0.5947" y="-1" relative="1" as="geometry">
            <mxPoint y="-25" as="offset" />
          </mxGeometry>
        </mxCell>
        <mxCell id="9VrtbJm_BeBLOcRpWGuh-29" style="edgeStyle=orthogonalEdgeStyle;rounded=1;orthogonalLoop=1;jettySize=auto;html=1;exitX=0.763;exitY=1.02;exitDx=0;exitDy=0;entryX=0.5;entryY=0;entryDx=0;entryDy=0;curved=0;strokeWidth=2;strokeColor=light-dark(#99FF99,#EDEDED);exitPerimeter=0;" parent="1" source="9VrtbJm_BeBLOcRpWGuh-1" target="9VrtbJm_BeBLOcRpWGuh-15" edge="1">
          <mxGeometry relative="1" as="geometry" />
        </mxCell>
        <mxCell id="9VrtbJm_BeBLOcRpWGuh-35" value="&lt;span style=&quot;font-size: 13px;&quot;&gt;Visiteur&lt;/span&gt;" style="edgeLabel;html=1;align=center;verticalAlign=middle;resizable=0;points=[];" parent="9VrtbJm_BeBLOcRpWGuh-29" vertex="1" connectable="0">
          <mxGeometry x="-0.1988" y="-2" relative="1" as="geometry">
            <mxPoint as="offset" />
          </mxGeometry>
        </mxCell>
        <mxCell id="9VrtbJm_BeBLOcRpWGuh-1" value="Page d&#39;Accueil" style="rounded=1;whiteSpace=wrap;html=1;fillColor=#99FF99;strokeColor=light-dark(#000000,#EDEDED);" parent="1" vertex="1">
          <mxGeometry x="180" y="20" width="380" height="50" as="geometry" />
        </mxCell>
        <mxCell id="9VrtbJm_BeBLOcRpWGuh-2" value="&lt;font face=&quot;Helvetica&quot; style=&quot;&quot;&gt;&lt;font style=&quot;color: rgb(0, 0, 0);&quot;&gt;À Propos&lt;/font&gt;&lt;/font&gt;" style="rounded=1;whiteSpace=wrap;html=1;fillColor=#99FF99;" parent="1" vertex="1">
          <mxGeometry x="60" y="180" width="110" height="40" as="geometry" />
        </mxCell>
        <mxCell id="9VrtbJm_BeBLOcRpWGuh-3" value="&lt;font face=&quot;Helvetica&quot; style=&quot;&quot;&gt;&lt;font style=&quot;color: rgb(0, 0, 0);&quot;&gt;Confidentialité&lt;/font&gt;&lt;/font&gt;" style="rounded=1;whiteSpace=wrap;html=1;fillColor=#99FF99;" parent="1" vertex="1">
          <mxGeometry x="60" y="230" width="110" height="40" as="geometry" />
        </mxCell>
        <mxCell id="9VrtbJm_BeBLOcRpWGuh-4" value="&lt;font face=&quot;Helvetica&quot; style=&quot;&quot;&gt;&lt;font style=&quot;color: rgb(0, 0, 0);&quot;&gt;FAQ&lt;/font&gt;&lt;/font&gt;" style="rounded=1;whiteSpace=wrap;html=1;fillColor=#99FF99;" parent="1" vertex="1">
          <mxGeometry x="60" y="280" width="110" height="40" as="geometry" />
        </mxCell>
        <mxCell id="9VrtbJm_BeBLOcRpWGuh-5" value="&lt;font face=&quot;Helvetica&quot; style=&quot;&quot;&gt;&lt;font style=&quot;color: rgb(0, 0, 0);&quot;&gt;Contact&lt;/font&gt;&lt;/font&gt;" style="rounded=1;whiteSpace=wrap;html=1;fillColor=#99FF99;" parent="1" vertex="1">
          <mxGeometry x="60" y="330" width="110" height="40" as="geometry" />
        </mxCell>
        <mxCell id="9VrtbJm_BeBLOcRpWGuh-9" style="edgeStyle=orthogonalEdgeStyle;rounded=1;orthogonalLoop=1;jettySize=auto;html=1;entryX=1;entryY=0.5;entryDx=0;entryDy=0;curved=0;strokeWidth=2;strokeColor=light-dark(#99FF99,#EDEDED);" parent="1" target="9VrtbJm_BeBLOcRpWGuh-3" edge="1">
          <mxGeometry relative="1" as="geometry">
            <mxPoint x="200" y="70" as="sourcePoint" />
            <mxPoint x="220" y="330" as="targetPoint" />
            <Array as="points">
              <mxPoint x="200" y="70" />
              <mxPoint x="200" y="250" />
            </Array>
          </mxGeometry>
        </mxCell>
        <mxCell id="9VrtbJm_BeBLOcRpWGuh-10" style="edgeStyle=orthogonalEdgeStyle;rounded=1;orthogonalLoop=1;jettySize=auto;html=1;entryX=1;entryY=0.5;entryDx=0;entryDy=0;curved=0;strokeWidth=2;strokeColor=light-dark(#99FF99,#EDEDED);" parent="1" edge="1">
          <mxGeometry relative="1" as="geometry">
            <mxPoint x="200" y="70" as="sourcePoint" />
            <mxPoint x="170" y="300" as="targetPoint" />
            <Array as="points">
              <mxPoint x="200" y="100" />
              <mxPoint x="200" y="300" />
            </Array>
          </mxGeometry>
        </mxCell>
        <mxCell id="9VrtbJm_BeBLOcRpWGuh-13" style="edgeStyle=orthogonalEdgeStyle;rounded=1;orthogonalLoop=1;jettySize=auto;html=1;entryX=1;entryY=0.5;entryDx=0;entryDy=0;curved=0;strokeWidth=2;strokeColor=light-dark(#99FF99,#EDEDED);" parent="1" target="9VrtbJm_BeBLOcRpWGuh-5" edge="1">
          <mxGeometry relative="1" as="geometry">
            <mxPoint x="200" y="70" as="sourcePoint" />
            <mxPoint x="220" y="330" as="targetPoint" />
            <Array as="points">
              <mxPoint x="200" y="350" />
            </Array>
          </mxGeometry>
        </mxCell>
        <mxCell id="9VrtbJm_BeBLOcRpWGuh-14" value="&lt;font style=&quot;font-size: 13px; color: rgb(0, 0, 0);&quot;&gt;Visiteur&lt;/font&gt;" style="edgeLabel;html=1;align=center;verticalAlign=middle;resizable=0;points=[];" parent="9VrtbJm_BeBLOcRpWGuh-13" vertex="1" connectable="0">
          <mxGeometry x="-0.671" y="1" relative="1" as="geometry">
            <mxPoint y="-1" as="offset" />
          </mxGeometry>
        </mxCell>
        <mxCell id="9VrtbJm_BeBLOcRpWGuh-30" style="edgeStyle=orthogonalEdgeStyle;rounded=1;orthogonalLoop=1;jettySize=auto;html=1;exitX=1;exitY=0.5;exitDx=0;exitDy=0;entryX=0;entryY=0.5;entryDx=0;entryDy=0;curved=0;strokeWidth=2;strokeColor=light-dark(#99FF99,#EDEDED);" parent="1" source="9VrtbJm_BeBLOcRpWGuh-15" target="9VrtbJm_BeBLOcRpWGuh-16" edge="1">
          <mxGeometry relative="1" as="geometry" />
        </mxCell>
        <mxCell id="9VrtbJm_BeBLOcRpWGuh-36" style="edgeStyle=orthogonalEdgeStyle;rounded=1;orthogonalLoop=1;jettySize=auto;html=1;exitX=0;exitY=0.5;exitDx=0;exitDy=0;endArrow=none;endFill=0;strokeWidth=2;strokeColor=light-dark(#FF6666,#EDEDED);curved=0;" parent="1" source="9VrtbJm_BeBLOcRpWGuh-15" edge="1">
          <mxGeometry relative="1" as="geometry">
            <mxPoint x="270" y="150" as="targetPoint" />
          </mxGeometry>
        </mxCell>
        <mxCell id="9VrtbJm_BeBLOcRpWGuh-37" value="&lt;font style=&quot;font-size: 13px;&quot;&gt;Joueur&lt;/font&gt;" style="edgeLabel;html=1;align=center;verticalAlign=middle;resizable=0;points=[];" parent="9VrtbJm_BeBLOcRpWGuh-36" vertex="1" connectable="0">
          <mxGeometry x="-0.1177" relative="1" as="geometry">
            <mxPoint as="offset" />
          </mxGeometry>
        </mxCell>
        <mxCell id="9VrtbJm_BeBLOcRpWGuh-38" style="edgeStyle=orthogonalEdgeStyle;rounded=1;orthogonalLoop=1;jettySize=auto;html=1;exitX=0.5;exitY=1;exitDx=0;exitDy=0;curved=0;strokeWidth=2;strokeColor=light-dark(#FF6666,#EDEDED);" parent="1" source="9VrtbJm_BeBLOcRpWGuh-15" target="9VrtbJm_BeBLOcRpWGuh-21" edge="1">
          <mxGeometry relative="1" as="geometry" />
        </mxCell>
        <mxCell id="Kj-AdhLOG5Nk-TtttrbX-4" value="&lt;font style=&quot;font-size: 13px;&quot;&gt;Joueur&lt;/font&gt;" style="edgeLabel;html=1;align=center;verticalAlign=middle;resizable=0;points=[];" vertex="1" connectable="0" parent="9VrtbJm_BeBLOcRpWGuh-38">
          <mxGeometry x="-0.4133" y="-1" relative="1" as="geometry">
            <mxPoint x="-31" y="1" as="offset" />
          </mxGeometry>
        </mxCell>
        <mxCell id="9VrtbJm_BeBLOcRpWGuh-55" style="edgeStyle=orthogonalEdgeStyle;rounded=1;orthogonalLoop=1;jettySize=auto;html=1;exitX=0.75;exitY=1;exitDx=0;exitDy=0;entryX=0.5;entryY=0;entryDx=0;entryDy=0;curved=0;strokeWidth=2;strokeColor=#CCCC00;" parent="1" source="9VrtbJm_BeBLOcRpWGuh-15" target="9VrtbJm_BeBLOcRpWGuh-54" edge="1">
          <mxGeometry relative="1" as="geometry">
            <Array as="points">
              <mxPoint x="495" y="210" />
              <mxPoint x="720" y="210" />
            </Array>
          </mxGeometry>
        </mxCell>
        <mxCell id="9VrtbJm_BeBLOcRpWGuh-61" style="edgeStyle=orthogonalEdgeStyle;rounded=1;orthogonalLoop=1;jettySize=auto;html=1;exitX=0.75;exitY=1;exitDx=0;exitDy=0;entryX=0.5;entryY=0;entryDx=0;entryDy=0;strokeWidth=2;curved=0;strokeColor=#CCCC00;" parent="1" source="9VrtbJm_BeBLOcRpWGuh-15" target="9VrtbJm_BeBLOcRpWGuh-47" edge="1">
          <mxGeometry relative="1" as="geometry">
            <Array as="points">
              <mxPoint x="495" y="210" />
              <mxPoint x="590" y="210" />
            </Array>
          </mxGeometry>
        </mxCell>
        <mxCell id="9VrtbJm_BeBLOcRpWGuh-62" value="&lt;font style=&quot;font-size: 13px;&quot;&gt;Organisateur&lt;/font&gt;" style="edgeLabel;html=1;align=center;verticalAlign=middle;resizable=0;points=[];" parent="9VrtbJm_BeBLOcRpWGuh-61" vertex="1" connectable="0">
          <mxGeometry x="0.082" relative="1" as="geometry">
            <mxPoint x="12" as="offset" />
          </mxGeometry>
        </mxCell>
        <mxCell id="9VrtbJm_BeBLOcRpWGuh-63" style="edgeStyle=orthogonalEdgeStyle;rounded=1;orthogonalLoop=1;jettySize=auto;html=1;exitX=0.75;exitY=1;exitDx=0;exitDy=0;curved=0;strokeWidth=2;strokeColor=#CCCC00;entryX=1.013;entryY=0.377;entryDx=0;entryDy=0;entryPerimeter=0;" parent="1" source="9VrtbJm_BeBLOcRpWGuh-15" target="9VrtbJm_BeBLOcRpWGuh-21" edge="1">
          <mxGeometry relative="1" as="geometry">
            <Array as="points">
              <mxPoint x="495" y="250" />
            </Array>
            <mxPoint x="510" y="250" as="targetPoint" />
          </mxGeometry>
        </mxCell>
        <mxCell id="9VrtbJm_BeBLOcRpWGuh-66" style="edgeStyle=orthogonalEdgeStyle;rounded=1;orthogonalLoop=1;jettySize=auto;html=1;exitX=1;exitY=1;exitDx=0;exitDy=0;entryX=0;entryY=0.5;entryDx=0;entryDy=0;strokeWidth=2;curved=0;strokeColor=#FF99FF;" parent="1" source="9VrtbJm_BeBLOcRpWGuh-15" target="9VrtbJm_BeBLOcRpWGuh-65" edge="1">
          <mxGeometry relative="1" as="geometry">
            <Array as="points">
              <mxPoint x="520" y="190" />
              <mxPoint x="850" y="190" />
              <mxPoint x="850" y="220" />
            </Array>
          </mxGeometry>
        </mxCell>
        <mxCell id="9VrtbJm_BeBLOcRpWGuh-73" style="edgeStyle=orthogonalEdgeStyle;rounded=1;orthogonalLoop=1;jettySize=auto;html=1;exitX=1;exitY=1;exitDx=0;exitDy=0;entryX=0;entryY=0.5;entryDx=0;entryDy=0;strokeWidth=2;curved=0;strokeColor=#FF99FF;" parent="1" source="9VrtbJm_BeBLOcRpWGuh-15" target="9VrtbJm_BeBLOcRpWGuh-70" edge="1">
          <mxGeometry relative="1" as="geometry">
            <Array as="points">
              <mxPoint x="520" y="190" />
              <mxPoint x="850" y="190" />
              <mxPoint x="850" y="290" />
            </Array>
          </mxGeometry>
        </mxCell>
        <mxCell id="9VrtbJm_BeBLOcRpWGuh-74" style="edgeStyle=orthogonalEdgeStyle;rounded=1;orthogonalLoop=1;jettySize=auto;html=1;exitX=1;exitY=1;exitDx=0;exitDy=0;entryX=0;entryY=0.5;entryDx=0;entryDy=0;strokeWidth=2;curved=0;strokeColor=#FF99FF;" parent="1" source="9VrtbJm_BeBLOcRpWGuh-15" target="9VrtbJm_BeBLOcRpWGuh-71" edge="1">
          <mxGeometry relative="1" as="geometry">
            <Array as="points">
              <mxPoint x="520" y="190" />
              <mxPoint x="850" y="190" />
              <mxPoint x="850" y="360" />
            </Array>
          </mxGeometry>
        </mxCell>
        <mxCell id="9VrtbJm_BeBLOcRpWGuh-75" style="edgeStyle=orthogonalEdgeStyle;rounded=1;orthogonalLoop=1;jettySize=auto;html=1;exitX=1;exitY=1;exitDx=0;exitDy=0;entryX=0.75;entryY=0;entryDx=0;entryDy=0;strokeWidth=2;curved=0;strokeColor=#FF99FF;" parent="1" source="9VrtbJm_BeBLOcRpWGuh-15" target="9VrtbJm_BeBLOcRpWGuh-54" edge="1">
          <mxGeometry relative="1" as="geometry">
            <Array as="points">
              <mxPoint x="520" y="190" />
              <mxPoint x="745" y="190" />
            </Array>
          </mxGeometry>
        </mxCell>
        <mxCell id="9VrtbJm_BeBLOcRpWGuh-77" value="&lt;font style=&quot;font-size: 13px;&quot;&gt;Administrateur&lt;/font&gt;" style="edgeLabel;html=1;align=center;verticalAlign=middle;resizable=0;points=[];" parent="9VrtbJm_BeBLOcRpWGuh-75" vertex="1" connectable="0">
          <mxGeometry x="-0.0904" y="1" relative="1" as="geometry">
            <mxPoint x="60" as="offset" />
          </mxGeometry>
        </mxCell>
        <mxCell id="Kj-AdhLOG5Nk-TtttrbX-5" style="edgeStyle=orthogonalEdgeStyle;rounded=1;orthogonalLoop=1;jettySize=auto;html=1;exitX=1;exitY=1;exitDx=0;exitDy=0;entryX=1;entryY=0.75;entryDx=0;entryDy=0;curved=0;strokeWidth=2;strokeColor=#FF99FF;" edge="1" parent="1" source="9VrtbJm_BeBLOcRpWGuh-15" target="9VrtbJm_BeBLOcRpWGuh-21">
          <mxGeometry relative="1" as="geometry" />
        </mxCell>
        <mxCell id="9VrtbJm_BeBLOcRpWGuh-15" value="Connexion" style="rounded=1;whiteSpace=wrap;html=1;fillColor=#99FF99;shadow=0;glass=0;strokeColor=default;" parent="1" vertex="1">
          <mxGeometry x="420" y="135" width="100" height="30" as="geometry" />
        </mxCell>
        <mxCell id="9VrtbJm_BeBLOcRpWGuh-32" style="edgeStyle=orthogonalEdgeStyle;rounded=1;orthogonalLoop=1;jettySize=auto;html=1;entryX=0;entryY=0.5;entryDx=0;entryDy=0;curved=0;strokeColor=light-dark(#99FF99,#EDEDED);strokeWidth=2;" parent="1" source="9VrtbJm_BeBLOcRpWGuh-16" target="9VrtbJm_BeBLOcRpWGuh-17" edge="1">
          <mxGeometry relative="1" as="geometry" />
        </mxCell>
        <mxCell id="9VrtbJm_BeBLOcRpWGuh-16" value="Créer un compte Utilisateur" style="rounded=1;whiteSpace=wrap;html=1;fillColor=#99FF99;shadow=0;glass=0;" parent="1" vertex="1">
          <mxGeometry x="670" y="130" width="140" height="40" as="geometry" />
        </mxCell>
        <mxCell id="9VrtbJm_BeBLOcRpWGuh-33" style="edgeStyle=orthogonalEdgeStyle;rounded=1;orthogonalLoop=1;jettySize=auto;html=1;exitX=1;exitY=0.5;exitDx=0;exitDy=0;entryX=0;entryY=0.5;entryDx=0;entryDy=0;strokeColor=light-dark(#99FF99,#EDEDED);curved=0;strokeWidth=2;" parent="1" source="9VrtbJm_BeBLOcRpWGuh-17" target="9VrtbJm_BeBLOcRpWGuh-18" edge="1">
          <mxGeometry relative="1" as="geometry" />
        </mxCell>
        <mxCell id="9VrtbJm_BeBLOcRpWGuh-17" value="Mot de passe oublié" style="rounded=1;whiteSpace=wrap;html=1;fillColor=#99FF99;shadow=0;glass=0;" parent="1" vertex="1">
          <mxGeometry x="860" y="130" width="140" height="40" as="geometry" />
        </mxCell>
        <mxCell id="9VrtbJm_BeBLOcRpWGuh-18" value="Mot de passe réinitialisé" style="rounded=1;whiteSpace=wrap;html=1;fillColor=#99FF99;shadow=0;glass=0;" parent="1" vertex="1">
          <mxGeometry x="1040" y="130" width="140" height="40" as="geometry" />
        </mxCell>
        <mxCell id="9VrtbJm_BeBLOcRpWGuh-27" style="edgeStyle=orthogonalEdgeStyle;rounded=1;orthogonalLoop=1;jettySize=auto;html=1;exitX=0.5;exitY=1;exitDx=0;exitDy=0;curved=0;strokeWidth=2;strokeColor=light-dark(#99FF99,#EDEDED);" parent="1" source="9VrtbJm_BeBLOcRpWGuh-19" target="9VrtbJm_BeBLOcRpWGuh-20" edge="1">
          <mxGeometry relative="1" as="geometry" />
        </mxCell>
        <mxCell id="9VrtbJm_BeBLOcRpWGuh-19" value="Vue globale des événements" style="rounded=1;whiteSpace=wrap;html=1;fillColor=#99FF99;shadow=0;glass=0;" parent="1" vertex="1">
          <mxGeometry x="180" y="450" width="100" height="40" as="geometry" />
        </mxCell>
        <mxCell id="9VrtbJm_BeBLOcRpWGuh-45" style="edgeStyle=orthogonalEdgeStyle;rounded=1;orthogonalLoop=1;jettySize=auto;html=1;exitX=1;exitY=0.5;exitDx=0;exitDy=0;entryX=0;entryY=0.5;entryDx=0;entryDy=0;curved=0;strokeWidth=2;strokeColor=light-dark(#FF6666,#EDEDED);" parent="1" source="9VrtbJm_BeBLOcRpWGuh-20" target="9VrtbJm_BeBLOcRpWGuh-43" edge="1">
          <mxGeometry relative="1" as="geometry" />
        </mxCell>
        <mxCell id="9VrtbJm_BeBLOcRpWGuh-52" value="Joueur" style="edgeLabel;html=1;align=center;verticalAlign=middle;resizable=0;points=[];" parent="9VrtbJm_BeBLOcRpWGuh-45" vertex="1" connectable="0">
          <mxGeometry x="-0.2827" y="1" relative="1" as="geometry">
            <mxPoint as="offset" />
          </mxGeometry>
        </mxCell>
        <mxCell id="9VrtbJm_BeBLOcRpWGuh-20" value="Vue détaillée des événements" style="rounded=1;whiteSpace=wrap;html=1;fillColor=#99FF99;shadow=0;glass=0;" parent="1" vertex="1">
          <mxGeometry x="180" y="530" width="100" height="40" as="geometry" />
        </mxCell>
        <mxCell id="9VrtbJm_BeBLOcRpWGuh-39" style="edgeStyle=orthogonalEdgeStyle;rounded=1;orthogonalLoop=1;jettySize=auto;html=1;exitX=0.5;exitY=1;exitDx=0;exitDy=0;entryX=0.5;entryY=0;entryDx=0;entryDy=0;strokeWidth=2;curved=0;strokeColor=light-dark(#FF6666,#EDEDED);" parent="1" source="9VrtbJm_BeBLOcRpWGuh-21" target="9VrtbJm_BeBLOcRpWGuh-22" edge="1">
          <mxGeometry relative="1" as="geometry" />
        </mxCell>
        <mxCell id="9VrtbJm_BeBLOcRpWGuh-40" style="edgeStyle=orthogonalEdgeStyle;rounded=1;orthogonalLoop=1;jettySize=auto;html=1;exitX=0.5;exitY=1;exitDx=0;exitDy=0;strokeWidth=2;curved=0;strokeColor=light-dark(#FF6666,#EDEDED);" parent="1" source="9VrtbJm_BeBLOcRpWGuh-21" target="9VrtbJm_BeBLOcRpWGuh-23" edge="1">
          <mxGeometry relative="1" as="geometry" />
        </mxCell>
        <mxCell id="9VrtbJm_BeBLOcRpWGuh-21" value="Espace&lt;div&gt;personnel&lt;/div&gt;" style="rounded=1;whiteSpace=wrap;html=1;fillColor=#FF6666;shadow=0;glass=0;" parent="1" vertex="1">
          <mxGeometry x="340" y="235" width="100" height="40" as="geometry" />
        </mxCell>
        <mxCell id="9VrtbJm_BeBLOcRpWGuh-41" style="edgeStyle=orthogonalEdgeStyle;rounded=1;orthogonalLoop=1;jettySize=auto;html=1;exitX=0.5;exitY=1;exitDx=0;exitDy=0;entryX=0.5;entryY=0;entryDx=0;entryDy=0;strokeWidth=2;curved=0;strokeColor=light-dark(#FF6666,#EDEDED);" parent="1" source="9VrtbJm_BeBLOcRpWGuh-22" target="9VrtbJm_BeBLOcRpWGuh-24" edge="1">
          <mxGeometry relative="1" as="geometry" />
        </mxCell>
        <mxCell id="9VrtbJm_BeBLOcRpWGuh-22" value="Données personnelles" style="rounded=1;whiteSpace=wrap;html=1;fillColor=#FF6666;shadow=0;glass=0;" parent="1" vertex="1">
          <mxGeometry x="260" y="325" width="100" height="40" as="geometry" />
        </mxCell>
        <mxCell id="9VrtbJm_BeBLOcRpWGuh-42" style="edgeStyle=orthogonalEdgeStyle;rounded=1;orthogonalLoop=1;jettySize=auto;html=1;exitX=0.5;exitY=1;exitDx=0;exitDy=0;strokeWidth=2;curved=0;strokeColor=light-dark(#FF6666,#EDEDED);" parent="1" source="9VrtbJm_BeBLOcRpWGuh-23" target="9VrtbJm_BeBLOcRpWGuh-25" edge="1">
          <mxGeometry relative="1" as="geometry" />
        </mxCell>
        <mxCell id="9VrtbJm_BeBLOcRpWGuh-23" value="Historique des événements" style="rounded=1;whiteSpace=wrap;html=1;fillColor=#FF6666;shadow=0;glass=0;" parent="1" vertex="1">
          <mxGeometry x="420" y="325" width="100" height="40" as="geometry" />
        </mxCell>
        <mxCell id="9VrtbJm_BeBLOcRpWGuh-24" value="Modifier les données personnelles" style="rounded=1;whiteSpace=wrap;html=1;fillColor=#FF6666;shadow=0;glass=0;" parent="1" vertex="1">
          <mxGeometry x="250" y="395" width="120" height="40" as="geometry" />
        </mxCell>
        <mxCell id="9VrtbJm_BeBLOcRpWGuh-25" value="Historique des scores" style="rounded=1;whiteSpace=wrap;html=1;fillColor=#FF6666;shadow=0;glass=0;" parent="1" vertex="1">
          <mxGeometry x="420" y="395" width="100" height="40" as="geometry" />
        </mxCell>
        <mxCell id="9VrtbJm_BeBLOcRpWGuh-46" style="edgeStyle=orthogonalEdgeStyle;rounded=1;orthogonalLoop=1;jettySize=auto;html=1;exitX=1;exitY=0.5;exitDx=0;exitDy=0;entryX=0;entryY=0.5;entryDx=0;entryDy=0;curved=0;strokeWidth=2;strokeColor=light-dark(#FF6666,#EDEDED);" parent="1" source="9VrtbJm_BeBLOcRpWGuh-43" target="9VrtbJm_BeBLOcRpWGuh-44" edge="1">
          <mxGeometry relative="1" as="geometry" />
        </mxCell>
        <mxCell id="9VrtbJm_BeBLOcRpWGuh-43" value="Inscription / Desinscription à un événement" style="rounded=1;whiteSpace=wrap;html=1;fillColor=#FF6666;shadow=0;glass=0;" parent="1" vertex="1">
          <mxGeometry x="340" y="540" width="120" height="50" as="geometry" />
        </mxCell>
        <mxCell id="9VrtbJm_BeBLOcRpWGuh-44" value="Rejoindre l&#39;événement" style="rounded=1;whiteSpace=wrap;html=1;fillColor=#FF6666;shadow=0;glass=0;" parent="1" vertex="1">
          <mxGeometry x="530" y="545" width="100" height="40" as="geometry" />
        </mxCell>
        <mxCell id="9VrtbJm_BeBLOcRpWGuh-50" style="edgeStyle=orthogonalEdgeStyle;rounded=1;orthogonalLoop=1;jettySize=auto;html=1;exitX=0.5;exitY=1;exitDx=0;exitDy=0;entryX=0.5;entryY=0;entryDx=0;entryDy=0;strokeWidth=2;curved=0;strokeColor=#CCCC00;" parent="1" source="9VrtbJm_BeBLOcRpWGuh-47" target="9VrtbJm_BeBLOcRpWGuh-48" edge="1">
          <mxGeometry relative="1" as="geometry" />
        </mxCell>
        <mxCell id="9VrtbJm_BeBLOcRpWGuh-47" value="Créer un événement" style="rounded=1;whiteSpace=wrap;html=1;fillColor=#FFFF66;shadow=0;glass=0;" parent="1" vertex="1">
          <mxGeometry x="540" y="325" width="100" height="40" as="geometry" />
        </mxCell>
        <mxCell id="9VrtbJm_BeBLOcRpWGuh-48" value="Modifier l&#39;événement" style="rounded=1;whiteSpace=wrap;html=1;fillColor=#FFFF66;shadow=0;glass=0;" parent="1" vertex="1">
          <mxGeometry x="540" y="395" width="100" height="40" as="geometry" />
        </mxCell>
        <mxCell id="9VrtbJm_BeBLOcRpWGuh-59" style="edgeStyle=orthogonalEdgeStyle;rounded=1;orthogonalLoop=1;jettySize=auto;html=1;exitX=1;exitY=0.5;exitDx=0;exitDy=0;entryX=0.5;entryY=0;entryDx=0;entryDy=0;curved=0;strokeWidth=2;strokeColor=#CCCC00;" parent="1" source="9VrtbJm_BeBLOcRpWGuh-54" target="9VrtbJm_BeBLOcRpWGuh-58" edge="1">
          <mxGeometry relative="1" as="geometry" />
        </mxCell>
        <mxCell id="9VrtbJm_BeBLOcRpWGuh-60" style="edgeStyle=orthogonalEdgeStyle;rounded=1;orthogonalLoop=1;jettySize=auto;html=1;exitX=0.5;exitY=1;exitDx=0;exitDy=0;entryX=0.5;entryY=0;entryDx=0;entryDy=0;curved=0;strokeWidth=2;strokeColor=#CCCC00;" parent="1" source="9VrtbJm_BeBLOcRpWGuh-54" target="9VrtbJm_BeBLOcRpWGuh-57" edge="1">
          <mxGeometry relative="1" as="geometry" />
        </mxCell>
        <mxCell id="9VrtbJm_BeBLOcRpWGuh-54" value="Gestion de ses événements" style="rounded=1;whiteSpace=wrap;html=1;fillColor=#FFFF66;shadow=0;glass=0;" parent="1" vertex="1">
          <mxGeometry x="670" y="347.5" width="100" height="40" as="geometry" />
        </mxCell>
        <mxCell id="9VrtbJm_BeBLOcRpWGuh-57" value="Modération des joueurs de ses événements" style="rounded=1;whiteSpace=wrap;html=1;fillColor=#FFFF66;shadow=0;glass=0;" parent="1" vertex="1">
          <mxGeometry x="670" y="422.5" width="100" height="60" as="geometry" />
        </mxCell>
        <mxCell id="9VrtbJm_BeBLOcRpWGuh-58" value="Démarrer l&#39;événement" style="rounded=1;whiteSpace=wrap;html=1;fillColor=#FFFF66;shadow=0;glass=0;" parent="1" vertex="1">
          <mxGeometry x="800" y="392.5" width="100" height="40" as="geometry" />
        </mxCell>
        <mxCell id="9VrtbJm_BeBLOcRpWGuh-72" style="edgeStyle=orthogonalEdgeStyle;rounded=1;orthogonalLoop=1;jettySize=auto;html=1;exitX=1;exitY=0.5;exitDx=0;exitDy=0;entryX=0;entryY=0.5;entryDx=0;entryDy=0;strokeWidth=2;curved=0;strokeColor=#FF99FF;" parent="1" source="9VrtbJm_BeBLOcRpWGuh-65" target="9VrtbJm_BeBLOcRpWGuh-69" edge="1">
          <mxGeometry relative="1" as="geometry" />
        </mxCell>
        <mxCell id="9VrtbJm_BeBLOcRpWGuh-65" value="Gestion de tous les événements" style="rounded=1;whiteSpace=wrap;html=1;fillColor=#FF99FF;shadow=0;glass=0;" parent="1" vertex="1">
          <mxGeometry x="890" y="200" width="100" height="40" as="geometry" />
        </mxCell>
        <mxCell id="9VrtbJm_BeBLOcRpWGuh-69" value="Modérations de tous les événements" style="rounded=1;whiteSpace=wrap;html=1;fillColor=#FF99FF;shadow=0;glass=0;" parent="1" vertex="1">
          <mxGeometry x="1040" y="200" width="150" height="40" as="geometry" />
        </mxCell>
        <mxCell id="9VrtbJm_BeBLOcRpWGuh-70" value="Gestion des droits joueurs / organisateur" style="rounded=1;whiteSpace=wrap;html=1;fillColor=#FF99FF;shadow=0;glass=0;" parent="1" vertex="1">
          <mxGeometry x="970" y="270" width="140" height="40" as="geometry" />
        </mxCell>
        <mxCell id="9VrtbJm_BeBLOcRpWGuh-71" value="Tableau de bord" style="rounded=1;whiteSpace=wrap;html=1;fillColor=#FF99FF;shadow=0;glass=0;" parent="1" vertex="1">
          <mxGeometry x="970" y="340" width="120" height="40" as="geometry" />
        </mxCell>
      </root>
    </mxGraphModel>
  </diagram>
</mxfile>
